<svg id="Layer_1" data-name="Layer 1" xmlns="http://www.w3.org/2000/svg" viewBox="0 0 1920 1080"><defs><style>.cls-1{fill:#f05a3c;}</style></defs><path class="cls-1" d="M1343.48,589.82v28.31h48.84V508.35c0-46.93-25.84-111.83-121.48-111.83-66.68,0-110.48,47.46-110.48,119.55V591.4c0,25.85-16.3,36.35-36.34,36.35s-36.34-12.42-36.34-36.35c0,0,0-36.12,0-83s-25.84-111.83-121.47-111.83c-66.69,0-110.48,47.46-110.48,119.55V591.4l-.1,74c0,24.07-16.3,36.35-36.34,36.35s-36.34-12-36.34-36.35V584.93h0V459.15C783,373,731.65,327,655.32,327S527.68,373,527.68,459.15V618.38h52.53V454.22c0-54.58,29.15-80.43,74.7-80.43s74.69,25.85,74.69,80.43V665.36c0,48.33,41.34,87.64,89.66,87.64a87.74,87.74,0,0,0,87.64-87.64v-47l.18-13.35V508.56C907.08,466.7,935,440,971.93,440c37.34,0,65.24,26.68,65.24,68.54l-.79,82.84A87.74,87.74,0,0,0,1124,679c43.68,0,86-37.15,86.47-74l1.26-96.47c0-41.86,27.91-68.54,64.84-68.54,37.35,0,65.25,26.68,65.25,68.54Z"/></svg>