<svg id="Layer_1" data-name="Layer 1" xmlns="http://www.w3.org/2000/svg" viewBox="0 0 1920 1080"><defs><style>.cls-1{fill:#004650;}</style></defs><path class="cls-1" d="M1781,426.2c-40.82,0-68.26,24.59-68.24,70.68v67.28h0v43c0,13-8.72,19.44-19.43,19.44s-19.44-6.57-19.44-19.44l-.05-39.56V527.33c0-38.56-23.43-64-59.1-64-51.15,0-65,34.72-65,59.82s0,44.42,0,44.42c0,12.8-8.72,19.44-19.43,19.44s-19.44-5.61-19.44-19.44V457.79c0-38.55-23.43-63.94-59.1-63.94-51.15,0-65,34.72-65,59.82v185.6c0,12.8-8.72,19.44-19.44,19.44S1348,653.1,1348,639.27V527.43c0-38.55-23.42-63.94-59.09-63.94-51.15,0-65,34.72-65,59.82l0,44.57c0,12.8-8.72,19.44-19.44,19.44S1185,581.71,1185,567.88V490.15c0-38.56-23.42-63.95-59.09-63.95-51.15,0-65,34.72-65,59.82l0,121.45c0,12.8-8.72,19.44-19.44,19.44S1022,621.3,1022,607.47v-84c0-14.68-4.73-32.64-18.88-45C993,469,979.27,463.65,962.94,463.65c-1,0-2,0-2.94,0s-1.94,0-2.94,0c-16.33,0-30.09,5.32-40.21,14.79-14.15,12.39-18.88,30.35-18.88,45v84c0,13.83-8.72,19.44-19.44,19.44s-19.44-6.64-19.44-19.44l0-121.45c0-25.1-13.82-59.82-65-59.82-35.67,0-59.09,25.39-59.09,63.95v77.73c0,13.83-8.72,19.44-19.44,19.44s-19.44-6.64-19.44-19.44l0-44.57c0-25.1-13.83-59.82-65-59.82-35.67,0-59.09,25.39-59.09,63.94V639.27c0,13.83-8.72,19.44-19.44,19.44s-19.44-6.64-19.44-19.44V453.67c0-25.1-13.82-59.82-65-59.82-35.67,0-59.1,25.39-59.1,63.94V567.62c0,13.83-8.72,19.44-19.44,19.44s-19.43-6.64-19.43-19.44c0,0,0-19.32,0-44.42s-13.82-59.82-65-59.82c-35.67,0-59.1,25.39-59.1,64v40.29l0,39.56c0,12.87-8.72,19.44-19.44,19.44s-19.43-6.41-19.43-19.44v-43h0V496.88c0-46.09-27.42-70.68-68.24-70.68S70.7,450.79,70.7,496.88v85.17H98.79v-87.8c0-29.2,15.59-43,40-43s39.95,13.83,39.95,43V607.18c0,25.85,22.11,46.88,48,46.88a46.93,46.93,0,0,0,46.88-46.88V582.05l.1-7.14v-51.6c0-22.39,14.93-36.66,34.68-36.66,20,0,34.9,14.27,34.9,36.66l-.42,44.31a46.93,46.93,0,0,0,46.87,46.88c23.37,0,46-19.87,46.25-39.59s.68-121.13.68-121.13c0-22.39,14.93-36.66,34.68-36.66,20,0,34.9,14.27,34.9,36.66l-.44,185.49a46.92,46.92,0,0,0,46.87,46.88c23.36,0,46-19.87,46.25-39.59s.67-123.14.67-123.14c0-22.39,14.93-36.66,34.69-36.66,20,0,34.9,14.27,34.9,36.66l-.42,44.46a46.93,46.93,0,0,0,46.88,46.88c23.36,0,46-19.87,46.25-39.59s.67-89,.67-89c0-22.39,14.93-36.66,34.68-36.66,20,0,34.9,14.27,34.9,36.66l-.42,121.34a46.93,46.93,0,0,0,46.88,46.88c23.36,0,46-19.87,46.25-39.59s.67-91.18.67-91.18c0-22.34,14.86-36.59,34.55-36.66s34.55,14.32,34.55,36.66c0,0,.41,71.46.67,91.18s22.89,39.59,46.25,39.59a46.93,46.93,0,0,0,46.88-46.88l-.42-121.34c0-22.39,14.92-36.66,34.9-36.66,19.75,0,34.68,14.27,34.68,36.66,0,0,.41,69.32.67,89s22.89,39.59,46.25,39.59a46.93,46.93,0,0,0,46.88-46.88l-.42-44.46c0-22.39,14.93-36.66,34.9-36.66,19.76,0,34.69,14.27,34.69,36.66,0,0,.41,103.42.67,123.14s22.89,39.59,46.25,39.59a46.92,46.92,0,0,0,46.87-46.88l-.44-185.49c0-22.39,14.92-36.66,34.9-36.66,19.75,0,34.68,14.27,34.68,36.66,0,0,.42,101.41.68,121.13s22.88,39.59,46.25,39.59a46.93,46.93,0,0,0,46.87-46.88l-.42-44.31c0-22.39,14.92-36.66,34.9-36.66,19.75,0,34.68,14.27,34.68,36.66v51.6l.1,7.14v25.13a46.93,46.93,0,0,0,46.88,46.88c25.84,0,48-21,48-46.88V494.25c0-29.2,15.59-43,40-43s40,13.83,40,43v87.8h28.09V496.88C1849.3,450.79,1821.86,426.2,1781,426.2Z"/></svg>