<svg id="Layer_1" data-name="Layer 1" xmlns="http://www.w3.org/2000/svg" viewBox="0 0 1920 1080"><defs><style>.cls-1{fill:#bef0e6;}</style></defs><path class="cls-1" d="M1155.24,585.45c-20.52,0-30.79-11.49-30.79-32.85V320.17h-51.33V556.3c0,45.58,26.69,71.45,72.27,71.45a88.32,88.32,0,0,0,30.8-5.34l-2.47-41.06A45.52,45.52,0,0,1,1155.24,585.45Z"/><path class="cls-1" d="M1372.06,504.14c0,43.94-24.22,65.71-60,65.71-32.44,0-51.33-18.89-51.33-58.31v-106h-51.33V518.11c0,66.52,38.18,96.91,94.44,96.91,27.11,0,51.74-9.85,68.17-27.92v10.26c0,44.35-20.12,66.12-65.29,66.12-29.56,0-57.9-9.85-76.38-25.87l-23,38.6c24.23,20.53,63.24,31.21,102.25,31.21,73.92,0,113.76-36.14,113.76-115.81v-186h-51.34Z"/><path class="cls-1" d="M1765,576.42c-7.81,6.16-18.07,9-28.75,9-19.31,0-30.39-11.49-30.39-32.85V448.29h58.72V407.23H1705.9v-50.1h-51.33v50.1H1540.41v-50.1h-51.33v196.7c0,48.46,27.51,73.92,75.57,73.92,18.48,0,37-4.92,49.27-14.78l-14.37-36.55c-7.8,6.16-18.07,9-28.74,9-19.31,0-30.4-11.49-30.4-32.85V448.29h114.16V553.83c0,48.46,27.51,73.92,75.56,73.92,18.48,0,37-4.92,49.28-14.78Z"/><path class="cls-1" d="M884.24,403.12c-66.73,0-110.55,47.49-110.55,119.63v75.38c0,25.35-16.32,36.37-36.37,36.37S701,621.71,701,598.13c0,0,0-36.14,0-83.1S675.07,403.12,579.37,403.12c-66.73,0-110.55,47.49-110.55,119.63v75.38l-.09,74c0,24.5-16.31,36.37-36.37,36.37S396,696,396,672.14V591.65h0V465.79c0-86.24-51.3-132.23-127.68-132.23s-127.72,46-127.72,132.23V625.13h52.57V551.21H342.64V672.14c0,48.35,41.37,87.69,89.72,87.69a87.8,87.8,0,0,0,87.7-87.69v-47l.18-13.37V515.23c0-41.89,27.93-68.58,64.89-68.58,37.37,0,65.29,26.69,65.29,68.58l-.79,82.9a87.64,87.64,0,0,0,174.22,13.63c17.08,10.29,37.61,16,60.39,16,30,0,55.44-10.26,72.69-31.21v28.34h48.86V515C1005.79,468.07,979.94,403.12,884.24,403.12ZM342.64,506.45H193.16V460.86c0-54.62,29.16-80.49,74.74-80.49s74.74,25.87,74.74,80.49ZM890,583.81c-37,0-64.88-26.69-64.88-68.58S853,446.65,890,446.65c37.37,0,65.29,26.69,65.29,68.58S927.36,583.81,890,583.81Z"/></svg>